<?xml version="1.0" encoding="utf-8"?>
<svg xmlns="http://www.w3.org/2000/svg" viewBox="0 0 500 500" xmlns:bx="https://boxy-svg.com">
  <defs>
    <bx:export>
      <bx:file format="svg" excluded="true"/>
    </bx:export>
  </defs>
  <g data-padding="20" transform="matrix(0.87214, 0, 0, 0.792232, -618.198862, 132.361254)" style="">
    <g transform="translate(10 4.12)scale(.96678)">
      <rect width="464.301" height="88.14" x="412.311" y="-273.755" fill="none" rx="0" ry="0" transform="translate(448.35 400.03)"/>
      <path fill="#738ffe" d="M889.511 195.265q-7.77 0-13.61-3.66-5.85-3.66-9.08-10.11-3.24-6.46-3.24-14.84 0-8.15 3.1-14.47 3.11-6.32 8.89-9.96 5.79-3.63 13.87-3.63 8.19 0 14.32 4.22 6.13 4.23 8.15 12.88l-7.28 1.71q-1.63-6.78-5.69-9.98t-9.62-3.2q-5.79 0-9.88 2.93-4.09 2.94-6.26 8.04-2.18 5.1-2.18 11.69 0 6.71 2.23 11.85t6.27 8.01q4.03 2.88 9.52 2.88 5.98 0 10.32-3.62t5.52-10.05l7.51 2.05q-2.25 8.46-8.42 12.86t-14.44 4.4m43.98.01q-4.3 0-7.47-1.95-3.16-1.94-4.87-5.56-1.71-3.61-1.71-8.64v-25.9h6.39v25.4q0 5.03 1.91 8.17 1.9 3.14 6.85 3.14 3.7 0 6.4-1.9 2.71-1.9 4.21-5.71 1.51-3.81 1.51-9.52v-19.58h6.39v41.13h-6.01v-9.67l.26 1.67q-1.6 3.81-5.16 6.37-3.56 2.55-8.7 2.55m37.4-.93h-6.39v-41.13h6.01v8.72l-.22-.99q1.82-4.26 5.5-6.45 3.67-2.19 7.44-2.19 1.11 0 2.16.19 1.04.19 1.96.64l-.84 6.02q-2.1-.65-4.15-.65-1.3 0-3.22.52-1.92.51-3.81 2.05-1.88 1.55-3.16 4.59-1.28 3.05-1.28 8.12Zm40.59.92q-5.86 0-10.15-2.63-4.28-2.63-6.61-7.45-2.32-4.81-2.32-11.37 0-6.58 2.32-11.42 2.33-4.84 6.55-7.47 4.23-2.62 9.94-2.62 3.28 0 6.57 1.04 3.3 1.05 6.02 3.62t4.38 7.05q1.66 4.47 1.66 11.29h-33.33v-5.18h27.77l-1.83 2.4q-.19-5.41-1.75-8.68-1.56-3.28-4.06-4.75-2.49-1.46-5.54-1.46-3.62 0-6.25 1.88-2.62 1.89-4.03 5.51-1.41 3.61-1.41 8.83 0 7.7 3.14 11.89 3.14 4.18 8.93 4.18 4.15 0 6.99-2.09t4.17-6.06l6.28 2.14q-1.48 3.58-3.96 6.11-2.47 2.53-5.88 3.88-3.41 1.36-7.6 1.36m43.43 0q-5.79 0-10.01-2.63-4.23-2.63-6.52-7.45-2.28-4.81-2.28-11.4t2.28-11.41q2.29-4.82 6.52-7.45 4.22-2.62 10.01-2.62 4.42 0 7.91 1.61 3.48 1.62 5.9 4.65t3.56 7.29l-6.51 1.72q-1.07-4.8-3.83-7.37t-7.03-2.57q-5.67 0-8.74 4.21-3.06 4.21-3.06 11.94 0 7.77 3.06 11.96 3.07 4.18 8.74 4.18 4.23 0 6.97-2.49t3.85-7.22l6.47 1.83q-.91 3.12-2.51 5.56t-3.79 4.15q-2.19 1.72-4.95 2.61-2.76.9-6.04.9m42.63 0q-5.79 0-10.21-2.73-4.42-2.72-6.9-7.56-2.47-4.83-2.47-11.19t2.47-11.2q2.48-4.84 6.9-7.56t10.21-2.72q5.78 0 10.2 2.72t6.9 7.56q2.47 4.84 2.47 11.2t-2.47 11.19q-2.48 4.84-6.9 7.56-4.42 2.73-10.2 2.73m0-5.34q5.82 0 9.19-4.34t3.37-11.8q0-7.51-3.37-11.83t-9.19-4.32q-5.83 0-9.2 4.32t-3.37 11.83q0 7.46 3.37 11.8t9.2 4.34m34.87 4.42h-6.4v-41.13h6.02v9.29l-.27-1.67q1.64-3.54 5.18-6.04 3.54-2.49 8.61-2.49 4.38 0 7.54 1.94t4.87 5.54q1.72 3.6 1.72 8.66v25.9h-6.4v-25.4q0-5.07-2.08-8.19-2.07-3.12-6.83-3.12-5.14 0-8.55 3.9-3.41 3.91-3.41 11.29Zm44.31 0h-6.4v-41.13h6.02v9.29l-.27-1.67q1.64-3.54 5.18-6.04 3.54-2.49 8.61-2.49 4.38 0 7.54 1.94t4.87 5.54q1.72 3.6 1.72 8.66v25.9h-6.4v-25.4q0-5.07-2.08-8.19-2.07-3.12-6.83-3.12-5.15 0-8.56 3.9-3.4 3.91-3.4 11.29Zm54.59.92q-5.87 0-10.15-2.63-4.29-2.63-6.61-7.45-2.32-4.81-2.32-11.37 0-6.58 2.32-11.42t6.55-7.47q4.23-2.62 9.94-2.62 3.28 0 6.57 1.04 3.3 1.05 6.02 3.62t4.38 7.05q1.66 4.47 1.66 11.29h-33.33v-5.18h27.76l-1.82 2.4q-.19-5.41-1.76-8.68-1.56-3.28-4.05-4.75-2.5-1.46-5.54-1.46-3.62 0-6.25 1.88-2.63 1.89-4.04 5.51-1.41 3.61-1.41 8.83 0 7.7 3.15 11.89 3.14 4.18 8.93 4.18 4.15 0 6.99-2.09 2.83-2.09 4.17-6.06l6.28 2.14q-1.48 3.58-3.96 6.11t-5.88 3.88q-3.41 1.36-7.6 1.36m43.43 0q-5.79 0-10.02-2.63-4.22-2.63-6.51-7.45-2.28-4.81-2.28-11.4t2.28-11.41q2.29-4.82 6.51-7.45 4.23-2.62 10.02-2.62 4.42 0 7.9 1.61 3.49 1.62 5.91 4.65 2.41 3.03 3.56 7.29l-6.52 1.72q-1.06-4.8-3.82-7.37t-7.03-2.57q-5.67 0-8.74 4.21t-3.07 11.94q0 7.77 3.07 11.96 3.07 4.18 8.74 4.18 4.23 0 6.97-2.49t3.85-7.22l6.47 1.83q-.91 3.12-2.51 5.56t-3.79 4.15q-2.19 1.72-4.95 2.61-2.76.9-6.04.9m42.86-.92h-8.49q-2.44 0-4.27-1.62-1.83-1.61-1.83-4.09v-30.09h-6.62v-5.33h6.62v-8.61l6.4-1.37v9.98h8.15v5.33h-8.15v28.38q0 1.25.36 1.67.37.42 1.55.42h6.28Z"/>
      <path fill="#738ffe" d="M769.224 206.5v-94.875h107.03c-.385-37.125-28.655-60.5-53.405-70.867v-24.86c0-9.983-5.528-15.648-15.538-15.648h-14.657c-10.01 0-19.305 5.665-19.305 15.675v24.832c-24.75 10.45-50.27 38.72-50.27 71.968 0 .55.412 1.127.412 1.705 0 .55.358 1.127.358 1.705v98.45c0 18.315 14.684 33.165 33 33.165h86.267c18.315 0 29.232-14.85 29.232-33.192V206.5Z"/>
      <path fill="#738ffe" d="M855.327 148.722h-20.13v-17.957c0-5.445-6.683-10.065-12.375-10.065-5.72 0-12.375 4.62-12.375 10.065v17.957h-18.123c-5.555 0-10.065 6.875-10.065 12.375s4.51 12.375 10.065 12.375h18.123v17.27c0 5.445 6.655 10.065 12.375 10.065 5.692 0 12.375-4.62 12.375-10.065v-17.27h20.13c5.554 0 10.064-6.875 10.064-12.375s-4.51-12.375-10.065-12.375"/>
    </g>
    <path fill="transparent" stroke="transparent" d="M699 0h602v248H699z"/>
  </g>
</svg>